<svg width="782" height="803" viewBox="0 0 782 803" fill="none" xmlns="http://www.w3.org/2000/svg">
<path d="M609.223 86.3413C573.66 123.645 524.352 188.291 472.699 265.333C427.808 332.288 398.213 382.445 394.761 397.419C392.136 408.813 393.479 425.739 398.165 440.3C400.168 446.525 400.273 446.611 407.079 447.513C412.041 448.172 414.995 449.457 417.649 452.111C420.86 455.321 421.333 456.831 421.333 463.851C421.333 468.281 420.371 474.777 419.195 478.287C415.433 489.504 404.397 505.407 397.819 509.088C396.084 510.059 395.007 516.544 392.329 542.148C387.865 584.839 387.283 643.687 391.151 661.333C395.64 681.819 402.705 694.759 412.552 700.529C422.028 706.081 440.207 720.025 446.404 726.493C456.72 737.26 462.588 750.835 462.645 764.067C462.691 774.219 453.787 782.759 436.737 788.915L428.667 791.828L434 791.889C444.204 792.007 478.167 785.165 500.667 778.459C630.799 739.676 732.341 630.613 761.309 498.513C782.855 400.259 765.656 299.956 712.637 214.667C689.359 177.22 653.248 138.039 618.04 112.029C613.897 108.969 610.667 105.543 610.667 104.208C610.667 102.903 612.464 96.5173 614.66 90.0213C616.856 83.5239 618.46 78.0146 618.224 77.7786C617.988 77.5426 613.937 81.3959 609.223 86.3413Z" fill="url(#paint0_linear_1006_4799)"/>
<path d="M458.559 10.612C451.609 12.7054 436.936 20.38 426.405 27.4294L415.592 34.6667H396.535C334.659 34.6667 276.849 47.9934 224.667 74.2867C184.521 94.5147 158.772 113.201 125.892 145.969C94.3974 177.357 73.9574 205.249 55.0307 242.667C22.9787 306.033 9.98002 373.815 16.0374 446C28.4267 593.652 127.485 721.812 266.947 770.621C292.913 779.709 310.985 784.061 341.504 788.572C359.519 791.235 360.967 791.159 352.201 788.005C335.605 782.035 317.835 769.148 305.345 754.027C282.747 726.668 268.177 696.137 248.704 635.333C231.448 581.452 219.437 557.515 177.125 492.667C161.553 468.801 156.735 460.604 150.656 447.632C140.512 425.984 138.635 409.939 144.8 397.568C148.504 390.133 152.425 386.924 168.667 378.029C179.84 371.912 184.171 368.653 203.333 351.952C225.365 332.751 234.225 326.184 246.333 320.083C260.351 313.021 268.229 311.916 276.392 315.867C280.719 317.961 283.199 320.368 285.5 324.707C287.239 327.984 289.065 330.667 289.559 330.667C290.052 330.667 290.869 328.717 291.377 326.333C292.973 318.837 305.969 285.597 317.057 260.653C360.217 163.552 418.733 61.3054 454.401 20.6667C459.551 14.8 463.367 9.90404 462.883 9.78804C462.397 9.67071 460.451 10.0414 458.559 10.612Z" fill="url(#paint1_linear_1006_4799)"/>
<defs>
<linearGradient id="paint0_linear_1006_4799" x1="603.5" y1="118.5" x2="471.5" y2="769.5" gradientUnits="userSpaceOnUse">
<stop stop-color="#B703E0"/>
<stop offset="1" stop-color="#7B43DA"/>
</linearGradient>
<linearGradient id="paint1_linear_1006_4799" x1="238.759" y1="9.76636" x2="238.759" y2="790.476" gradientUnits="userSpaceOnUse">
<stop stop-color="#29A3D1"/>
<stop offset="1" stop-color="#556FDA"/>
</linearGradient>
</defs>
</svg>
