<svg width="24" height="24" viewBox="0 0 24 24" fill="none" xmlns="http://www.w3.org/2000/svg">
<path d="M20.7171 13.06C20.998 12.7788 21.1558 12.3975 21.1558 12C21.1558 11.6025 20.998 11.2213 20.7171 10.94L15.0611 5.28103C14.7797 4.99964 14.398 4.84155 14.0001 4.84155C13.6021 4.84155 13.2205 4.99964 12.9391 5.28103C12.6577 5.56243 12.4996 5.94408 12.4996 6.34203C12.4996 6.73999 12.6577 7.12164 12.9391 7.40303L16.0351 10.5L4.50008 10.5C4.10226 10.5 3.72073 10.6581 3.43942 10.9394C3.15812 11.2207 3.00008 11.6022 3.00008 12C3.00008 12.3979 3.15812 12.7794 3.43942 13.0607C3.72073 13.342 4.10226 13.5 4.50008 13.5L16.0351 13.5L12.9391 16.596C12.7997 16.7354 12.6892 16.9008 12.6138 17.0828C12.5384 17.2649 12.4996 17.46 12.4996 17.657C12.4996 17.8541 12.5384 18.0492 12.6138 18.2312C12.6892 18.4133 12.7997 18.5787 12.9391 18.718C13.0784 18.8574 13.2438 18.9679 13.4259 19.0433C13.6079 19.1187 13.803 19.1575 14.0001 19.1575C14.1971 19.1575 14.3922 19.1187 14.5743 19.0433C14.7563 18.9679 14.9217 18.8574 15.0611 18.718L20.7171 13.06Z" fill="black"/>
</svg>
