<svg width="16" height="17" viewBox="0 0 16 17" fill="none" xmlns="http://www.w3.org/2000/svg">
<path fill-rule="evenodd" clip-rule="evenodd" d="M8 4.79872C9.88667 4.79872 11.9267 4.59664 13.6667 4.12511L14 5.47233C12.76 5.80914 11.3333 6.03143 10 6.14594L9.33333 6.19085V9.11853L11.3333 10.4223V15.4744H10V11.4327L7.93333 10.0855L4.73333 15.4744H3.33333L6.66667 9.15102V6.19085L6 6.14594C4.66667 6.03143 3.24 5.80914 2 5.47233L2.33333 4.12511C4.07333 4.59664 6.11333 4.79872 8 4.79872ZM9.33333 2.77789C9.33333 3.51886 8.73333 4.12511 8 4.12511C7.26667 4.12511 6.66667 3.51886 6.66667 2.77789C6.66667 2.03691 7.26667 1.43066 8 1.43066C8.73333 1.43066 9.33333 2.03691 9.33333 2.77789Z" fill="#303133"/>
</svg>
